<svg id="Layer" enable-background="new 0 0 64 64" height="512" viewBox="0 0 64 64" width="512" xmlns="http://www.w3.org/2000/svg"><path d="m21.4 29.05-2.98-.7 2.24 3.61.34-.21 3.26-2.02zm10.6-19.05c12.15 0 22 9.85 22 22s-9.85 22-22 22-22-9.85-22-22 9.85-22 22-22z" fill="#4dd0e1"/><g fill="#012e52"><path d="m32 8c-13.234 0-24 10.766-24 24 0 13.233 10.766 24 24 24s24-10.767 24-24c0-13.234-10.766-24-24-24zm0 44c-11.028 0-20-8.972-20-20s8.972-20 20-20 20 8.972 20 20-8.972 20-20 20z"/><path d="m32 19c-5.168 0-9.802 3.087-11.866 7.698l-1.257-.295c-.785-.183-1.609.123-2.081.78s-.502 1.534-.075 2.222l2.24 3.61c.378.61 1.032.945 1.701.945.358 0 .722-.097 1.049-.299l3.602-2.231c.687-.426 1.05-1.223.92-2.02-.129-.797-.726-1.439-1.511-1.626l-.596-.142c1.56-2.808 4.558-4.642 7.874-4.642 4.962 0 9 4.038 9 9 0 4.963-4.038 9-9 9-1.104 0-2 .896-2 2s.896 2 2 2c7.168 0 13-5.832 13-13s-5.832-13-13-13z"/><path d="m26.982 39.484c-.981-.665-1.804-1.493-2.446-2.46-.611-.922-1.852-1.174-2.772-.561-.92.61-1.171 1.852-.561 2.771.932 1.404 2.121 2.602 3.534 3.56.344.233.734.345 1.121.345.641 0 1.271-.308 1.657-.878.62-.913.381-2.157-.533-2.777z"/></g></svg>