<svg height="512pt" viewBox="0 -28 512 512" width="512pt" xmlns="http://www.w3.org/2000/svg"><path d="m114.59375 10h-78.09375c-14.636719 0-26.5 11.863281-26.5 26.5v241c0 14.636719 11.863281 26.5 26.5 26.5h78.09375c14.636719 0 26.5-11.863281 26.5-26.5v-241c0-14.636719-11.867188-26.5-26.5-26.5zm0 0" fill="#ff6977"/><path d="m312.289062 290.332031h125.191407c19.648437 0 36.101562-16.078125 35.726562-35.722656-.363281-19.039063-15.910156-34.359375-35.035156-34.359375h28.785156c19.355469 0 35.042969-15.6875 35.042969-35.042969 0-19.351562-15.6875-35.042969-35.042969-35.042969h-28.785156c19.125 0 34.671875-15.320312 35.035156-34.355468.375-19.644532-16.078125-35.726563-35.726562-35.726563h-16.433594c19.351563 0 35.039063-15.6875 35.039063-35.042969 0-19.351562-15.6875-35.039062-35.039063-35.039062h-72.941406c-.359375 0-.707031.042969-1.066407.054688l.6875-.054688h-103.449218c-25.769532 0-50.878906 8.136719-71.75 23.253906l-31.433594 22.765625-.71875 216.054688 1.023438.195312c55.359374 10.476563 95.433593 58.847657 95.433593 115.191407v47.539062c0 5.523438 4.476563 10 10 10 36.152344 0 65.460938-29.308594 65.460938-65.460938z" fill="#ffddcf"/><path d="m97.546875 86c0 12.148438-9.851563 22-22 22-12.152344 0-22-9.851562-22-22s9.847656-22 22-22c12.148437 0 22 9.851562 22 22zm0 0" fill="#fff"/><path d="m512 185.207031c0-22.066406-15.953125-40.464843-36.933594-44.296875 5.125-7.308594 8.148438-16.199218 8.148438-25.785156 0-18.585938-11.320313-34.578125-27.425782-41.449219 6.429688-7.789062 10.296876-17.769531 10.296876-28.632812 0-24.835938-20.203126-45.042969-45.039063-45.042969h-72.941406c-.0625 0-.125.0078125-.1875.0117188-.066407-.0039063-.128907-.0117188-.191407-.0117188h-103.449218c-28.054688 0-54.894532 8.699219-77.613282 25.152344l-15.574218 11.28125c-.035156-20.09375-16.394532-36.433594-36.496094-36.433594h-78.09375c-20.125 0-36.5 16.375-36.5 36.5v80.5c0 5.523438 4.476562 10 10 10s10-4.476562 10-10v-80.5c0-9.097656 7.402344-16.5 16.5-16.5h78.09375c9.097656 0 16.5 7.402344 16.5 16.5v241c0 9.097656-7.402344 16.5-16.5 16.5h-78.09375c-9.097656 0-16.5-7.402344-16.5-16.5v-80.5c0-5.523438-4.476562-10-10-10s-10 4.476562-10 10v80.5c0 20.125 16.375 36.5 36.5 36.5h78.09375c17.625 0 32.375-12.558594 35.765625-29.199219 44.910156 13.433594 76.476563 54.972657 76.476563 102.707031v47.492188c0 11.027344 8.972656 20 20 20 41.605468 0 75.457031-33.851562 75.457031-75.460938v-79.207031h115.878906c24.835937 0 45.042969-20.203125 45.042969-45.042969 0-9.585937-3.019532-18.472656-8.144532-25.785156 20.976563-3.832031 36.929688-22.230468 36.929688-44.296875zm-45.042969 25.042969h-155.410156c-5.523437 0-10 4.476562-10 10s4.476563 10 10 10h126.625c13.808594 0 25.042969 11.234375 25.042969 25.039062 0 13.8125-11.234375 25.042969-25.042969 25.042969h-125.878906c-5.523438 0-10 4.480469-10 10v89.207031c0 30.582032-24.878907 55.460938-55.460938 55.460938v-47.492188c0-58.398437-39.800781-109.003906-95.738281-123.273437v-203.109375l27.300781-19.773438c19.285157-13.96875 42.066407-21.351562 65.882813-21.351562h103.449218c.0625 0 .125-.007812.1875-.011719.066407.003907.125.011719.191407.011719h72.9375c13.808593 0 25.042969 11.234375 25.042969 25.042969 0 13.808593-11.234376 25.039062-25.042969 25.039062h-108.003907c-5.519531 0-10 4.480469-10 10 0 5.523438 4.480469 10 10 10h125.132813c13.808594 0 25.042969 11.234375 25.042969 25.042969s-11.234375 25.039062-25.042969 25.039062h-126.625c-5.523437 0-10 4.480469-10 10 0 5.523438 4.476563 10 10 10h155.410156c13.808594 0 25.042969 11.234376 25.042969 25.042969 0 13.808594-11.234375 25.042969-25.042969 25.042969zm0 0"/><path d="m107.546875 86c0-17.644531-14.355469-32-32-32s-32 14.355469-32 32 14.355469 32 32 32 32-14.355469 32-32zm-44 0c0-6.617188 5.382813-12 12-12s12 5.382812 12 12-5.382813 12-12 12-12-5.382812-12-12zm0 0"/><path d="m10 167c2.628906 0 5.210938-1.070312 7.070312-2.929688 1.859376-1.859374 2.929688-4.441406 2.929688-7.070312s-1.070312-5.210938-2.929688-7.070312c-1.859374-1.859376-4.441406-2.929688-7.070312-2.929688s-5.210938 1.070312-7.070312 2.929688c-1.859376 1.859374-2.929688 4.441406-2.929688 7.070312s1.070312 5.210938 2.929688 7.070312c1.859374 1.859376 4.441406 2.929688 7.070312 2.929688zm0 0"/></svg>