<svg height="511pt" viewBox="0 -82 511.99995 511" width="511pt" xmlns="http://www.w3.org/2000/svg"><g fill="#ffcb9d"><path d="m124.339844 237.078125c-5.152344-3.441406-9.539063-7.714844-13.054688-12.5625-5.644531 14.386719-14.546875 41.507813-16.40625 73.25-1.363281 23.371094 17.28125 43.0625 40.695313 43.0625 19.097656 0 35.609375-13.261719 39.773437-31.902344 2.800782-12.53125 7.738282-27.832031 16.394532-44.175781-31.710938-7.6875-53.214844-18.199219-67.402344-27.671875zm0 0"/><path d="m504.269531 296.65625c-4.371093-46.140625-13.277343-90.308594-13.277343-90.308594 2.664062 13.285156-4.046876 26.65625-16.289063 32.46875-12.808594 6.082032-31.6875 13.832032-56.160156 20.667969 2.039062 13.726563 3.8125 30.167969 5.183593 44.667969 1.964844 20.785156 19.390626 36.675781 40.265626 36.675781 23.808593 0 42.519531-20.46875 40.277343-44.171875zm0 0"/><path d="m111.285156 224.515625c-7.761718-10.699219-11.300781-24.199219-9.5-37.746094.882813-6.671875 2.132813-14.300781 3.878906-22.554687-37.292968-22.726563-78.273437-37.273438-93.035156-4.558594-24.382812 54.03125 43.890625 96.265625 84.703125 115.921875 3.539063-21.972656 9.679688-40.171875 13.953125-51.0625zm0 0"/></g><path d="m101.785156 186.769531c.882813-6.671875 2.132813-14.300781 3.878906-22.554687-7.746093-4.722656-15.65625-9.089844-23.453124-12.753906-27.363282 73.296874 18.878906 105.480468 18.878906 105.480468l.007812.007813c3.289063-13.582031 7.195313-24.804688 10.1875-32.433594-7.761718-10.699219-11.300781-24.199219-9.5-37.746094zm0 0" fill="#ffba7e"/><path d="m124.339844 237.078125c-16.519532-11.03125-25.167969-30.621094-22.554688-50.308594 6.71875-50.660156 34.140625-156.300781 146.019532-175.042969 181.089843-30.339843 231.023437 133.96875 243.1875 194.621094 2.664062 13.289063-4.042969 26.660156-16.285157 32.46875-31.832031 15.113282-101.046875 40.523438-200.707031 36.59375-80.449219-3.175781-125.574219-22.25-149.660156-38.332031zm0 0" fill="#aee295"/><path d="m191.742188 264.75c-31.710938-7.6875-53.214844-18.199219-67.402344-27.671875-5.152344-3.441406-9.539063-7.714844-13.054688-12.5625-2.996094 7.628906-6.90625 18.839844-10.195312 32.425781 16.621094 11.34375 41.992187 23.941406 79.699218 32.929688 2.746094-7.894532 6.3125-16.355469 10.953126-25.121094zm0 0" fill="#ffba7e"/><path d="m474.707031 238.816406c-12.8125 6.082032-31.691406 13.832032-56.160156 20.667969 1.238281 8.351563 2.378906 17.707031 3.394531 27.019531 34.3125-8.730468 60.269532-19.496094 77.0625-27.675781.238282-.117187.472656-.242187.707032-.363281-4.1875-29.636719-8.71875-52.117188-8.71875-52.117188 2.664062 13.285156-4.042969 26.65625-16.285157 32.46875zm0 0" fill="#ffba7e"/><path d="m489.011719 197.117188c-2.792969 6.285156-7.742188 11.585937-14.308594 14.699218-31.828125 15.113282-101.042969 40.523438-200.703125 36.59375-80.449219-3.175781-125.574219-22.25-149.660156-38.332031-10.941406-7.304687-18.425782-18.367187-21.476563-30.726563-.410156 2.582032-.765625 5.058594-1.078125 7.414063-2.613281 19.691406 6.035156 39.28125 22.554688 50.3125 24.085937 16.082031 69.210937 35.15625 149.660156 38.328125 99.65625 3.933594 168.871094-21.476562 200.703125-36.589844 12.242187-5.8125 18.953125-19.183594 16.289063-32.46875-.574219-2.859375-1.230469-5.945312-1.980469-9.230468zm0 0" fill="#98db7c"/><path d="m55.855469 165.605469c-8.519531 0-15.195313 8.285156-15.195313 18.863281s6.675782 18.867188 15.195313 18.867188c8.523437 0 15.195312-8.289063 15.195312-18.867188s-6.671875-18.863281-15.195312-18.863281zm0 0"/><path d="m511.789062 295.976562c-4.359374-46.011718-13.304687-90.660156-13.394531-91.105468 0-.003906 0-.003906 0-.003906-4.214843-21.011719-12.582031-52.871094-28.507812-85.320313-1.824219-3.722656-6.316407-5.257813-10.039063-3.433594-3.71875 1.828125-5.253906 6.324219-3.429687 10.039063 7.050781 14.363281 12.550781 28.621094 16.828125 41.789062l-19.515625 11.84375-48.027344-28.238281v-57.140625l21.328125-14.738281c5.296875 6.511719 10.339844 13.515625 15.125 21.015625 2.226562 3.492187 6.863281 4.519531 10.355469 2.289062 3.492187-2.230468 4.519531-6.867187 2.289062-10.359375-20.796875-32.59375-46.753906-56.929687-77.144531-72.328125-37.363281-18.929687-81.46875-24.308594-131.09375-15.996094-55.46875 9.292969-97.308594 39.839844-124.355469 90.792969-1.941406 3.660157-.546875 8.203125 3.109375 10.144531 3.613282 1.917969 8.226563.5 10.144532-3.109374 3.949218-7.4375 8.246093-14.398438 12.875-20.882813l15.921874 12.824219v56.890625l-52.960937 23.398437c2.355469-12.996094 6.152344-28.996094 12.28125-45.5625 1.4375-3.886718-.546875-8.199218-4.429687-9.636718-3.886719-1.4375-8.203126.546874-9.640626 4.429687-3.710937 10.035156-6.605468 19.859375-8.878906 29.003906-30.222656-17.011719-54.222656-22.945312-71.429687-17.625-10.570313 3.269531-18.460938 10.535157-23.457031 21.605469-11.910157 26.390625-5.21875 53.769531 19.351562 79.171875 18.5 19.125 44.132812 34.242187 63.988281 44.179687-.773437 5.617188-1.375 11.449219-1.722656 17.4375-.78125 13.367188 3.855469 26.097657 13.054687 35.851563 9.21875 9.777344 21.699219 15.160156 35.132813 15.160156 22.765625 0 42.136719-15.535156 47.109375-37.777343 2.839844-12.71875 7.246094-25.210938 13.113281-37.21875 27.347657 6.082031 54.929688 8.648437 77.9375 9.554687 7.125.28125 14.078125.414063 20.894531.414063 46.792969 0 86.28125-6.304688 117.722657-14.394532 1.339843 10.148438 2.671875 22.1875 3.96875 35.941406 2.34375 24.789063 22.871093 43.480469 47.746093 43.480469 13.484376 0 26.425782-5.722656 35.503907-15.699219 9.046875-9.945312 13.511719-23.320312 12.246093-36.6875zm-28.101562-88.148437c1.988281 9.921875-3.007812 19.886719-12.152344 24.226563-3.070312 1.457031-6.5 3.007812-10.242187 4.613281v-43.921875l16.414062-9.960938c2.59375 9.367188 4.539063 17.867188 5.980469 25.042969zm-134.597656 57.476563v-72.449219l49.074218-28.332031 48.125 28.292968v49.84375c-23.742187 8.828125-56.398437 18.027344-97.199218 22.644532zm-56.609375-170.5 49.109375-28.355469 49.109375 28.355469v56.703124l-49.109375 28.355469-49.109375-28.355469zm124.582031-26.484376-19.222656 13.28125-48.75-28.144531v-28.964843c25.6875 8.550781 48.378906 23.175781 67.972656 43.828124zm-168.019531-49.230468c31.015625-5.195313 59.390625-4.785156 85.046875 1.179687v33.1875l-49.109375 28.355469-49.109375-28.355469v-31.644531c4.292968-1.058594 8.679687-1.972656 13.171875-2.722656zm-20.675781 160.773437-49.109376-28.355469v-56.703124l49.109376-28.355469 49.109374 28.355469v56.703124zm-7.5-153.59375v27.1875l-48.40625 27.949219-14.855469-11.972656c17.242187-20.011719 38.386719-34.445313 63.261719-43.164063zm-184.988282 199.035157c-20.507812-21.203126-25.894531-41.667969-16.460937-62.566407 3.191406-7.078125 7.839843-11.476562 14.210937-13.445312 13.648438-4.222657 35.582032 2.226562 63.609375 18.644531-1.296875 6.683594-2.246093 12.734375-2.925781 17.84375-1.855469 13.992188 1.371094 28.023438 8.570312 39.632812-3.429687 9.199219-7.847656 22.789063-11.15625 39.015626-18.074218-9.34375-39.996093-22.738282-55.847656-39.125zm132.132813 82.011718c-3.425781 15.335938-16.773438 26.046875-32.464844 26.046875-9.261719 0-17.863281-3.710937-24.21875-10.453125-6.335937-6.714844-9.53125-15.480468-8.992187-24.679687 1.390624-23.792969 6.9375-44.996094 11.777343-59.542969 1.898438 1.667969 3.90625 3.222656 6.035157 4.644531 17.871093 11.933594 38.964843 20.398438 60.773437 26.367188-5.691406 12.167969-10.042969 24.78125-12.910156 37.617187zm106.285156-39.382812c-13.878906-.546875-26.644531-1.582032-38.425781-2.984375v-22.351563c0-4.144531-3.359375-7.503906-7.503906-7.503906-4.140626 0-7.5 3.359375-7.5 7.503906v20.292969c-46.601563-7.320313-75.375-20.679687-92.390626-32.039063-12.828124-8.566406-20.257812-23.554687-19.636718-39.015624l62.464844-27.597657 49.5625 28.617188v19.734375c0 4.144531 3.359374 7.503906 7.5 7.503906 4.144531 0 7.503906-3.359375 7.503906-7.503906v-19.734375l49.109375-28.355469 49.109375 28.355469v73.90625c-12.476563 1.007812-25.628906 1.574219-39.453125 1.574219-6.625.003906-13.410157-.128907-20.339844-.402344zm214.144531 54.636718c-6.238281 6.859376-15.132812 10.792969-24.402344 10.792969-17.09375 0-31.199218-12.851562-32.808593-29.890625-1.40625-14.871094-2.851563-27.800781-4.308594-38.570312 21.816406-6.472656 38.960937-13.554688 51.046875-19.292969 4.238281-2.011719 7.941406-4.746094 11.019531-7.996094 2.683594 16.46875 5.796875 37.972657 7.863281 59.777344.882813 9.308594-2.105468 18.25-8.410156 25.179687zm0 0"/></svg>