<?xml version="1.0" encoding="iso-8859-1"?>
<!-- Generator: Adobe Illustrator 19.0.0, SVG Export Plug-In . SVG Version: 6.00 Build 0)  -->
<svg version="1.1" id="Capa_1" xmlns="http://www.w3.org/2000/svg" xmlns:xlink="http://www.w3.org/1999/xlink" x="0px" y="0px"
	 viewBox="0 0 512 512" style="enable-background:new 0 0 512 512;" xml:space="preserve">
<path style="fill:#A0D860;" d="M381.937,504.713H130.061c-10.929,0-19.79-8.86-19.79-19.79V27.076c0-10.929,8.86-19.79,19.79-19.79
	h251.876c10.929,0,19.79,8.86,19.79,19.79v457.848C401.726,495.853,392.866,504.713,381.937,504.713z"/>
<path style="fill:#61C979;" d="M381.937,7.287h-24.773c10.93,0,19.79,8.86,19.79,19.79v445.666c0,3.976-3.223,7.199-7.199,7.199
	H130.061c-10.929,0-19.79-8.86-19.79-19.79v24.773c0,10.929,8.86,19.79,19.79,19.79h227.103h24.773c10.93,0,19.79-8.86,19.79-19.79
	v-24.772V27.076C401.727,16.147,392.866,7.287,381.937,7.287z"/>
<path style="fill:#F7F9F9;" d="M361.182,428.575H150.816c-5.455,0-9.876-4.422-9.876-9.876V61.074c0-5.455,4.422-9.876,9.876-9.876
	h210.365c5.455,0,9.876,4.422,9.876,9.876v357.625C371.058,424.153,366.636,428.575,361.182,428.575z"/>
<path style="fill:#E4E4E4;" d="M361.182,51.197h-38.073c5.454,0,9.876,4.422,9.876,9.876v357.625c0,5.454-4.422,9.876-9.876,9.876
	h38.073c5.454,0,9.876-4.422,9.876-9.876V61.074C371.058,55.619,366.636,51.197,361.182,51.197z"/>
<circle style="fill:#FFFFFF;" cx="255.999" cy="468.14" r="16.894"/>
<path style="fill:#FFB427;" d="M317.064,320.179l-0.005-87.69l-60.453-50.612c-0.393-0.329-0.98-0.329-1.373,0l-60.296,50.551v87.75
	c0,3.138,2.544,5.682,5.682,5.682h28.817c3.138,0,5.682-2.544,5.682-5.682v-49.353c0-3.344,2.711-6.055,6.055-6.055h29.652
	c3.344,0,6.055,2.711,6.055,6.055v49.353c0,3.138,2.544,5.682,5.682,5.682h28.821C314.521,325.861,317.064,323.317,317.064,320.179z
	"/>
<path style="fill:#FF9D00;" d="M317.06,232.489l-60.453-50.612c-0.393-0.329-0.98-0.329-1.373,0l-15.366,12.882l52.419,43.886
	l0.005,87.216h19.091c3.138,0,5.682-2.544,5.682-5.682L317.06,232.489z"/>
<path style="fill:#FFDE3E;" d="M361.182,51.198H150.816c-5.454,0-9.876,4.422-9.876,9.876v30.517h230.118V61.074
	C371.058,55.619,366.636,51.198,361.182,51.198z"/>
<path style="fill:#FCD400;" d="M361.182,51.197H323.11c5.454,0.001,9.875,4.422,9.875,9.876V91.59h38.073V61.074
	c0-2.727-1.105-5.196-2.893-6.984S363.909,51.197,361.182,51.197z"/>
<path style="fill:#FF4D4A;" d="M340.206,228.483c0-0.231-0.107-0.451-0.295-0.609l-83.303-69.722
	c-0.393-0.329-0.981-0.329-1.373,0.001l-83.149,69.8c-0.188,0.158-0.294,0.378-0.294,0.608v23.416c0,0.73,0.975,1.107,1.57,0.608
	l81.873-68.641c0.393-0.329,0.98-0.329,1.373,0l82.031,68.677c0.596,0.499,1.57,0.121,1.57-0.609L340.206,228.483z"/>
<g>
	<path style="fill:#1A1A1A;" d="M401.727,246.608c-4.025,0-7.287,3.262-7.287,7.287v231.029c0,6.894-5.609,12.503-12.504,12.503
		H130.062c-6.895,0-12.504-5.609-12.504-12.503V253.895c0-4.024-3.262-7.287-7.287-7.287s-7.287,3.262-7.287,7.287v231.029
		c0,14.93,12.147,27.076,27.077,27.076h251.875c14.93,0,27.077-12.147,27.077-27.076V253.895
		C409.013,249.87,405.751,246.608,401.727,246.608z"/>
	<path style="fill:#1A1A1A;" d="M381.936,0H130.062c-14.93,0-27.077,12.147-27.077,27.076v192.005c0,4.024,3.262,7.287,7.287,7.287
		s7.287-3.262,7.287-7.287V27.076c0-6.894,5.609-12.503,12.504-12.503h251.875c6.895,0,12.504,5.609,12.504,12.503v192.213
		c0,4.024,3.262,7.287,7.287,7.287s7.287-3.262,7.287-7.287V27.076C409.013,12.147,396.866,0,381.936,0z"/>
	<path style="fill:#1A1A1A;" d="M378.344,418.698V91.591V61.074c0-9.464-7.699-17.163-17.162-17.163H150.816
		c-9.463,0-17.162,7.699-17.162,17.163v30.517v327.107c0,9.463,7.699,17.163,17.162,17.163h210.366
		C370.645,435.861,378.344,428.162,378.344,418.698z M148.227,61.074c0-1.428,1.161-2.59,2.589-2.59h210.366
		c1.428,0,2.589,1.162,2.589,2.59v23.231H148.227V61.074z M148.227,418.698V98.878h215.545v319.821c0,1.428-1.161,2.59-2.589,2.59
		H150.816C149.388,421.288,148.227,420.126,148.227,418.698z"/>
	<path style="fill:#1A1A1A;" d="M231.819,468.144c0,13.333,10.847,24.18,24.18,24.18c13.333,0,24.18-10.847,24.18-24.18
		c0-13.333-10.847-24.18-24.18-24.18C242.666,443.964,231.819,454.812,231.819,468.144z M265.606,468.144
		c0,5.297-4.31,9.607-9.607,9.607s-9.607-4.31-9.607-9.607s4.31-9.607,9.607-9.607S265.606,462.847,265.606,468.144z"/>
	<path style="fill:#1A1A1A;" d="M344.587,222.286l-83.3-69.718c-1.499-1.257-3.405-1.949-5.366-1.949
		c-1.962,0-3.869,0.692-5.373,1.953l-83.145,69.797c-1.842,1.545-2.898,3.801-2.898,6.191v23.416c0,4.478,3.69,8.122,8.225,8.122
		c1.94,0,3.826-0.685,5.313-1.93l9.608-8.056v70.066c0,7.151,5.818,12.969,12.969,12.969h28.818c7.151,0,12.968-5.818,12.968-12.969
		v-48.121h27.188v48.121c0,7.151,5.817,12.969,12.968,12.969h28.822c7.151,0,12.969-5.818,12.969-12.969l-0.004-70.019l9.614,8.049
		c1.484,1.241,3.368,1.926,5.306,1.926h0.001c1.951,0,3.843-0.686,5.33-1.932c1.84-1.542,2.895-3.798,2.895-6.19l-0.001-23.528
		C347.492,226.097,346.438,223.842,344.587,222.286z M284.166,318.574v-47.749c0-7.356-5.985-13.341-13.342-13.341h-29.651
		c-7.357,0-13.342,5.985-13.342,13.341v47.749h-25.608v-80.68l53.698-45.021l53.851,45.084l0.005,80.617H284.166z M332.919,238.33
		l-11.177-9.357c-0.002-0.002-0.004-0.004-0.005-0.005l-32.239-26.991l-28.215-23.622c-0.35-0.292-0.723-0.551-1.112-0.781
		c-0.028-0.016-0.054-0.036-0.082-0.052c-0.053-0.03-0.109-0.055-0.162-0.084c-0.415-0.226-0.847-0.417-1.294-0.57
		c-0.867-0.297-1.783-0.458-2.712-0.458l0,0l0,0c-1.469,0-2.908,0.389-4.17,1.114c-0.421,0.242-0.822,0.521-1.198,0.835
		l-60.296,50.552c-0.002,0.001-0.003,0.003-0.005,0.004l-11.174,9.368v-6.686l76.849-64.512l76.992,64.44V238.33z"/>
</g>
<g>
</g>
<g>
</g>
<g>
</g>
<g>
</g>
<g>
</g>
<g>
</g>
<g>
</g>
<g>
</g>
<g>
</g>
<g>
</g>
<g>
</g>
<g>
</g>
<g>
</g>
<g>
</g>
<g>
</g>
</svg>
