<svg id="Layer_5" enable-background="new 0 0 64 64" height="512" viewBox="0 0 64 64" width="512" xmlns="http://www.w3.org/2000/svg"><g><g><g><path d="m48.55 61.11-4.55-9.11v-20c-1.1 0-2-.9-2-2 0-.55.22-1.05.59-1.41.36-.37.86-.59 1.41-.59 0-1.92-.76-3.76-2.12-5.12l-.37-.37c-.17-.17-.33-.34-.48-.51h-19.03v-4-12h19.05c.15-.17.3-.33.46-.49 2.17-2.17 5.17-3.51 8.49-3.51h-48v16 44h48c-.61 0-1.17-.35-1.45-.89z" fill="#f0d0b4"/></g><g><path d="m22 6h19.05c-1.9 2.12-3.05 4.92-3.05 8v.03c0 2.95 1.08 5.78 3.03 7.97h-19.03v-4z" fill="#e6e9ed"/></g><g><path d="m34 38v12h-12v-4h-4v-8z" fill="#fcd770"/></g><g><path d="m22 50v8h-16v-12h12 4z" fill="#ff826e"/></g><g><path d="m41.05 6c.15-.17.3-.33.46-.49 2.17-2.17 5.17-3.51 8.49-3.51 6.63 0 12 5.37 12 12v.03c0 3.18-1.26 6.23-3.51 8.48l-.37.37c-1.36 1.36-2.12 3.2-2.12 5.12h-12c0-1.92-.76-3.76-2.12-5.12l-.37-.37c-.17-.17-.33-.34-.48-.51-1.95-2.19-3.03-5.02-3.03-7.97v-.03c0-3.08 1.15-5.88 3.05-8z" fill="#ffeaa7"/></g><g><path d="m56 28c1.1 0 2 .9 2 2 0 .55-.22 1.05-.59 1.41-.36.37-.86.59-1.41.59h-4-4-4c-1.1 0-2-.9-2-2 0-.55.22-1.05.59-1.41.36-.37.86-.59 1.41-.59z" fill="#aab2bd"/></g><g><path d="m52 32h4v20h-4z" fill="#69d6f4"/></g><g><path d="m52 12h4v8h-4z" fill="#b4dd7f"/></g><g><path d="m56 52-4.55 9.11c-.28.54-.84.89-1.45.89s-1.17-.35-1.45-.89l-4.55-9.11h4 4z" fill="#aab2bd"/></g><g><path d="m48 32h4v20h-4z" fill="#b4dd7f"/></g><g><path d="m52 12v8h-4v-10-2h4z" fill="#b4dd7f"/></g><g><path d="m44 32h4v20h-4z" fill="#69d6f4"/></g><g><path d="m44 10h4v10h-4z" fill="#b4dd7f"/></g></g><g><path d="m53 7h-6v2h-4v12h14v-10h-4zm-2 2v10h-2v-10zm-6 2h2v8h-2zm10 2v6h-2v-6z"/><path d="m35 51v-14h-18v8h-12v14h18v-8zm-16-12h14v10h-10v-4h-4zm2 18h-14v-10h14z"/><path d="m5 5h14v2h-14z"/><path d="m5 9h2v2h-2z"/><path d="m9 9h10v2h-10z"/><path d="m17 13h2v2h-2z"/><path d="m5 13h10v2h-10z"/><path d="m5 17h14v2h-14z"/><path d="m5 21h14v2h-14z"/><path d="m5 25h34v2h-34z"/><path d="m5 29h34v2h-34z"/><path d="m5 33h2v2h-2z"/><path d="m9 33h30v2h-30z"/><path d="m59.192 23.222c2.456-2.455 3.808-5.72 3.808-9.222 0-7.168-5.832-13-13-13h-49v62h49c.998 0 1.896-.555 2.342-1.447l4.658-9.317v-19.42c1.161-.414 2-1.514 2-2.816 0-1.281-.811-2.369-1.943-2.798.173-1.364.784-2.627 1.772-3.616zm-56.192-20.222h40.106c-.9.567-1.727 1.236-2.461 2h-19.645v18h19.607c.069.072.13.151.201.222l.364.364c.988.989 1.598 2.252 1.772 3.616-1.133.429-1.944 1.517-1.944 2.798 0 1.302.839 2.402 2 2.816v19.421l4.382 8.763h-44.382zm36.068 4c-1.303 2.029-2.068 4.438-2.068 7.029 0 2.51.716 4.906 2.034 6.971h-16.034v-14zm13.932 44v-18h2v18zm-2 0h-2v-18h2zm-4 0h-2v-18h2zm3.553 9.658c-.211.422-.895.422-1.105 0l-3.83-7.658h8.764zm5.447-29.658h-12c-.551 0-1-.448-1-1s.449-1 1-1h12c.551 0 1 .448 1 1s-.449 1-1 1zm1.414-8.828c-1.318 1.319-2.128 3.006-2.347 4.828h-10.134c-.219-1.822-1.029-3.509-2.347-4.828l-.364-.364c-2.078-2.078-3.222-4.84-3.222-7.808 0-6.065 4.935-11 11-11s11 4.935 11 11.029c0 2.938-1.144 5.701-3.222 7.778z"/><path d="m31 53h10v2h-10z"/><path d="m31 57h2v2h-2z"/><path d="m35 57h2v2h-2z"/><path d="m39 57h2v2h-2z"/></g></g></svg>